<svg width="50" height="58" viewBox="0 0 50 58" fill="none" xmlns="http://www.w3.org/2000/svg">
<g clip-path="url(#clip0_628_38)">
<path d="M25.0107 15.7367C17.9125 15.7367 12.1871 21.4622 12.1871 28.5604C12.1871 35.6586 17.9125 41.384 25.0107 41.384C32.1089 41.384 37.8344 35.6586 37.8344 28.5604C37.8344 21.4622 32.1089 15.7367 25.0107 15.7367ZM25.0107 36.8974C20.4237 36.8974 16.6737 33.1586 16.6737 28.5604C16.6737 23.9621 20.4125 20.2233 25.0107 20.2233C29.6089 20.2233 33.3478 23.9621 33.3478 28.5604C33.3478 33.1586 29.5978 36.8974 25.0107 36.8974V36.8974ZM41.35 15.2122C41.35 16.8751 40.0107 18.2032 38.3589 18.2032C36.696 18.2032 35.3679 16.8639 35.3679 15.2122C35.3679 13.5604 36.7072 12.2211 38.3589 12.2211C40.0107 12.2211 41.35 13.5604 41.35 15.2122ZM49.8433 18.2479C49.6536 14.2412 48.7384 10.6921 45.8031 7.76796C42.879 4.84385 39.3299 3.92868 35.3232 3.72778C31.1938 3.49341 18.8165 3.49341 14.6871 3.72778C10.6915 3.91752 7.14244 4.83269 4.20717 7.7568C1.2719 10.6809 0.367885 14.23 0.166992 18.2367C-0.0673828 22.3662 -0.0673828 34.7434 0.166992 38.8729C0.356724 42.8796 1.2719 46.4287 4.20717 49.3528C7.14244 52.2769 10.6804 53.192 14.6871 53.3929C18.8165 53.6273 31.1938 53.6273 35.3232 53.3929C39.3299 53.2032 42.879 52.288 45.8031 49.3528C48.7272 46.4287 49.6424 42.8796 49.8433 38.8729C50.0777 34.7434 50.0777 22.3773 49.8433 18.2479V18.2479ZM44.5085 43.3037C43.638 45.4912 41.9527 47.1764 39.754 48.0581C36.4616 49.3639 28.6491 49.0626 25.0107 49.0626C21.3723 49.0626 13.5487 49.3528 10.2674 48.0581C8.07994 47.1876 6.39467 45.5023 5.51297 43.3037C4.20717 40.0112 4.50851 32.1988 4.50851 28.5604C4.50851 24.922 4.21833 17.0983 5.51297 13.8171C6.38351 11.6296 8.06878 9.9443 10.2674 9.0626C13.5598 7.7568 21.3723 8.05814 25.0107 8.05814C28.6491 8.05814 36.4728 7.76796 39.754 9.0626C41.9415 9.93314 43.6268 11.6184 44.5085 13.8171C45.8143 17.1095 45.513 24.922 45.513 28.5604C45.513 32.1988 45.8143 40.0224 44.5085 43.3037Z" fill="#030303"/>
</g>
<defs>
<clipPath id="clip0_628_38">
<rect width="50" height="57.1428" fill="white"/>
</clipPath>
</defs>
</svg>
