<svg width="57" height="50" viewBox="0 0 57 50" fill="none" xmlns="http://www.w3.org/2000/svg">
<path d="M4.20103 28.512L4.39513 28.2069L16.1014 9.8939C16.2725 9.6257 16.6747 9.65351 16.8042 9.94471C18.7598 14.3277 20.4474 19.7786 19.6568 23.1721C19.3193 24.5683 18.3946 26.4593 17.3543 28.2069C17.2203 28.4612 17.0723 28.7109 16.9151 28.9513C16.8412 29.0622 16.7163 29.127 16.5822 29.127H4.54313C4.21943 29.127 4.02993 28.7756 4.20103 28.512Z" fill="#030303"/>
<path d="M56.3804 31.9149V34.8137C56.3804 34.9801 56.2787 35.1281 56.1307 35.1928C55.2246 35.5812 52.1223 37.0052 50.8324 38.799C47.5406 43.3807 45.0255 49.932 39.4035 49.932H15.9493C7.63659 49.932 0.900391 43.1727 0.900391 34.8322V34.564C0.900391 34.3421 1.08069 34.1618 1.30259 34.1618H14.3774C14.6363 34.1618 14.8259 34.4022 14.8028 34.6565C14.7103 35.5072 14.8675 36.3764 15.2697 37.167C16.0464 38.7435 17.6554 39.7283 19.3937 39.7283H25.8664V34.675H19.4677C19.1394 34.675 18.9453 34.2959 19.1348 34.0277C19.2042 33.9214 19.2828 33.8104 19.366 33.6856C19.9716 32.8257 20.8362 31.4895 21.6961 29.9684C22.2833 28.9421 22.852 27.8463 23.3097 26.746C23.4022 26.5472 23.4761 26.3438 23.5501 26.1449C23.6749 25.7936 23.8044 25.4653 23.8968 25.1371C23.9893 24.8597 24.0633 24.5684 24.1373 24.2956C24.3546 23.3617 24.447 22.3723 24.447 21.3459C24.447 20.9437 24.4285 20.523 24.3915 20.1207C24.3731 19.6815 24.3176 19.2423 24.2621 18.8031C24.2251 18.4147 24.1558 18.031 24.0818 17.6288C23.9893 17.0416 23.8599 16.4591 23.7119 15.8719L23.6611 15.65C23.5501 15.2478 23.4576 14.864 23.3282 14.4618C22.9629 13.1996 22.5422 11.9698 22.0984 10.8186C21.9366 10.3609 21.7516 9.9217 21.5667 9.4825C21.2939 8.8213 21.0165 8.2203 20.7622 7.6516C20.6328 7.3927 20.5218 7.1569 20.4109 6.9165C20.286 6.6437 20.1566 6.371 20.0271 6.112C19.9347 5.9132 19.8283 5.7283 19.7543 5.5434L18.9638 4.0824C18.8528 3.8836 19.0377 3.6478 19.255 3.7079L24.202 5.0487H24.2159C24.2251 5.0487 24.2297 5.0533 24.2344 5.0533L24.8862 5.2336L25.6029 5.437L25.8664 5.511V2.5706C25.8664 1.1512 27.0037 0 28.4092 0C29.112 0 29.75 0.286599 30.2077 0.753599C30.6654 1.2206 30.9521 1.8586 30.9521 2.5706V6.935L31.4791 7.0829C31.5207 7.0968 31.5623 7.1153 31.5993 7.143C31.7288 7.2401 31.9137 7.3835 32.1495 7.5591C32.3344 7.7071 32.5332 7.8874 32.7737 8.0723C33.2499 8.4561 33.8185 8.9508 34.4427 9.5194C34.6091 9.6628 34.7709 9.8107 34.9189 9.9587C35.7233 10.7076 36.6249 11.5861 37.4848 12.557C37.7252 12.8297 37.961 13.1071 38.2014 13.3984C38.4419 13.6943 38.6961 13.9856 38.9181 14.2769C39.2093 14.6652 39.5237 15.0674 39.7965 15.4882C39.9259 15.687 40.0739 15.8904 40.1987 16.0892C40.5501 16.6209 40.8599 17.1711 41.1558 17.7212C41.2806 17.9755 41.41 18.2529 41.521 18.5257C41.8492 19.2608 42.1082 20.0098 42.2746 20.7588C42.3255 20.9206 42.3624 21.0963 42.3809 21.2535V21.2904C42.4364 21.5124 42.4549 21.7482 42.4734 21.9886C42.5474 22.756 42.5104 23.5235 42.3439 24.2956C42.2746 24.6239 42.1821 24.9336 42.0712 25.2619C41.9602 25.5763 41.8492 25.9045 41.7059 26.2143C41.4285 26.8569 41.1003 27.4996 40.7119 28.1006C40.5871 28.3225 40.4391 28.5583 40.2912 28.7802C40.1294 29.016 39.9629 29.238 39.815 29.4553C39.6116 29.7327 39.3943 30.0239 39.1723 30.2828C38.9735 30.5556 38.7701 30.8284 38.5482 31.0688C38.2384 31.434 37.9425 31.7808 37.6328 32.1137C37.4478 32.331 37.249 32.5529 37.0456 32.7517C36.8468 32.9736 36.6434 33.1724 36.4584 33.3573C36.1487 33.6671 35.8898 33.9075 35.6725 34.1063L35.1639 34.5733C35.0899 34.638 34.9928 34.675 34.8911 34.675H30.9521V39.7283H35.9083C37.0179 39.7283 38.072 39.3353 38.9227 38.6141C39.2139 38.3598 40.4854 37.2594 41.988 35.5997C42.0388 35.5442 42.1035 35.5026 42.1775 35.4841L55.8672 31.5265C56.1215 31.4525 56.3804 31.6467 56.3804 31.9149Z" fill="#030303"/>
</svg>
