<svg width="50" height="50" viewBox="0 0 50 50" fill="none" xmlns="http://www.w3.org/2000/svg">
<path d="M44.8603 14.8161C44.8921 15.2602 44.8921 15.7044 44.8921 16.1486C44.8921 29.6955 34.5812 45.3046 15.736 45.3046C9.93017 45.3046 4.53682 43.6231 0 40.7045C0.824902 40.7996 1.61797 40.8313 2.47461 40.8313C7.26513 40.8313 11.6751 39.2133 15.1967 36.4532C10.6916 36.358 6.91621 33.4075 5.61543 29.3465C6.25 29.4417 6.88447 29.5051 7.55078 29.5051C8.4708 29.5051 9.39091 29.3782 10.2475 29.1562C5.55205 28.2044 2.03037 24.08 2.03037 19.0991V18.9722C3.39453 19.7336 4.98096 20.2095 6.6623 20.2729C3.90215 18.4328 2.09385 15.2919 2.09385 11.7386C2.09385 9.83511 2.60137 8.09019 3.48975 6.56733C8.53418 12.7856 16.1167 16.8464 24.6191 17.2907C24.4605 16.5293 24.3653 15.7362 24.3653 14.943C24.3653 9.29575 28.9339 4.69556 34.6128 4.69556C37.5633 4.69556 40.2282 5.93286 42.1001 7.93159C44.416 7.48745 46.6368 6.63081 48.6039 5.45698C47.8424 7.83648 46.2244 9.83521 44.0988 11.1042C46.161 10.8822 48.1597 10.311 49.9998 9.51792C48.6041 11.5483 46.8591 13.3566 44.8603 14.8161V14.8161Z" fill="#030303"/>
</svg>
